<svg xmlns="http://www.w3.org/2000/svg" xmlns:xlink="http://www.w3.org/1999/xlink" version="1.1" width="27" height="25" viewBox="0 0 256 256" xml:space="preserve">

<defs>
</defs>
<g style="stroke: none; stroke-width: 0; stroke-dasharray: none; stroke-linecap: butt; stroke-linejoin: miter; stroke-miterlimit: 10; fill: none; fill-rule: nonzero; opacity: 1;" transform="translate(1.4065934065934016 1.4065934065934016) scale(2.81 2.81)" >
	<path d="M 80.784 58.058 h -0.14 V 46.23 c 0 -7.526 -6.123 -13.65 -13.649 -13.65 H 37.516 c 1.346 -1.13 3.08 -1.814 4.971 -1.814 c 0.552 0 1 -0.448 1 -1 v -0.194 c 0 -0.552 -0.448 -1 -1 -1 c -4.271 0 -7.745 -3.474 -7.745 -7.744 c 0 -0.552 -0.448 -1 -1 -1 h -0.194 c -0.552 0 -1 0.448 -1 1 c 0 4.27 -3.474 7.744 -7.744 7.744 c -0.552 0 -1 0.448 -1 1 v 0.194 c 0 0.552 0.448 1 1 1 c 1.891 0 3.624 0.684 4.971 1.814 h -6.77 c -7.526 0 -13.65 6.124 -13.65 13.65 v 11.827 h -0.14 c -3.002 0 -5.444 2.442 -5.444 5.445 v 16.95 V 89 c 0 0.553 0.448 1 1 1 h 8.547 c 0.552 0 1 -0.447 1 -1 v -7.547 h 61.363 V 89 c 0 0.553 0.447 1 1 1 h 8.548 c 0.553 0 1 -0.447 1 -1 v -8.547 v -16.95 C 86.229 60.5 83.787 58.058 80.784 58.058 z M 33.646 24.924 c 0.97 2.087 2.659 3.775 4.746 4.745 c -2.087 0.971 -3.775 2.659 -4.746 4.746 c -0.971 -2.087 -2.659 -3.775 -4.746 -4.746 C 30.987 28.699 32.675 27.011 33.646 24.924 z M 11.355 46.23 c 0 -6.424 5.226 -11.65 11.65 -11.65 h 8.46 c 0.684 1.154 1.083 2.495 1.083 3.93 c 0 0.552 0.448 1 1 1 h 0.194 c 0.552 0 1 -0.448 1 -1 c 0 -1.435 0.4 -2.776 1.083 -3.93 h 31.17 c 6.424 0 11.649 5.226 11.649 11.65 v 11.827 h -17.26 v -3.32 c 0 -3.186 -2.591 -5.776 -5.776 -5.776 H 34.391 c -3.185 0 -5.776 2.591 -5.776 5.776 v 3.32 h -17.26 V 46.23 z M 59.385 58.058 h -28.77 v -3.32 c 0 -2.082 1.694 -3.776 3.776 -3.776 h 21.217 c 2.082 0 3.776 1.694 3.776 3.776 V 58.058 z M 5.771 63.503 c 0 -1.899 1.545 -3.445 3.444 -3.445 h 1.14 h 19.26 h 30.77 h 19.26 h 1.14 c 1.899 0 3.445 1.546 3.445 3.445 v 15.95 h -7.548 H 13.318 H 5.771 V 63.503 z M 12.318 88 H 5.771 v -6.547 h 6.547 V 88 z M 84.229 88 h -6.548 v -6.547 h 6.548 V 88 z" style="stroke: none; stroke-width: 1; stroke-dasharray: none; stroke-linecap: butt; stroke-linejoin: miter; stroke-miterlimit: 10; fill: rgb(0,0,0); fill-rule: nonzero; opacity: 1;" transform=" matrix(1 0 0 1 0 0) " stroke-linecap="round" />
	<path d="M 78.021 72.476 c 0 -0.553 -0.447 -1 -1 -1 H 12.978 c -0.552 0 -1 0.447 -1 1 s 0.448 1 1 1 h 64.043 C 77.574 73.476 78.021 73.028 78.021 72.476 z" style="stroke: none; stroke-width: 1; stroke-dasharray: none; stroke-linecap: butt; stroke-linejoin: miter; stroke-miterlimit: 10; fill: rgb(0,0,0); fill-rule: nonzero; opacity: 1;" transform=" matrix(1 0 0 1 0 0) " stroke-linecap="round" />
	<path d="M 48.243 19.061 c 3.749 0 6.8 3.05 6.8 6.8 c 0 0.552 0.447 1 1 1 h 0.173 c 0.553 0 1 -0.448 1 -1 c 0 -3.75 3.051 -6.8 6.8 -6.8 c 0.553 0 1 -0.448 1 -1 v -0.173 c 0 -0.552 -0.447 -1 -1 -1 c -3.749 0 -6.8 -3.05 -6.8 -6.8 c 0 -0.552 -0.447 -1 -1 -1 h -0.173 c -0.553 0 -1 0.448 -1 1 c 0 3.75 -3.051 6.8 -6.8 6.8 c -0.553 0 -1 0.448 -1 1 v 0.173 C 47.243 18.613 47.69 19.061 48.243 19.061 z M 56.129 13.99 c 0.856 1.724 2.261 3.128 3.984 3.984 c -1.724 0.856 -3.128 2.26 -3.984 3.984 c -0.855 -1.724 -2.26 -3.128 -3.983 -3.984 C 53.869 17.118 55.273 15.714 56.129 13.99 z" style="stroke: none; stroke-width: 1; stroke-dasharray: none; stroke-linecap: butt; stroke-linejoin: miter; stroke-miterlimit: 10; fill: rgb(0,0,0); fill-rule: nonzero; opacity: 1;" transform=" matrix(1 0 0 1 0 0) " stroke-linecap="round" />
	<path d="M 33.646 7.735 c 2.542 0 4.611 2.068 4.611 4.611 c 0 0.552 0.448 1 1 1 h 0.125 c 0.552 0 1 -0.448 1 -1 c 0 -2.542 2.068 -4.611 4.611 -4.611 c 0.552 0 1 -0.448 1 -1 V 6.611 c 0 -0.552 -0.448 -1 -1 -1 c -2.542 0 -4.611 -2.068 -4.611 -4.611 c 0 -0.552 -0.448 -1 -1 -1 h -0.125 c -0.552 0 -1 0.448 -1 1 c 0 2.542 -2.068 4.611 -4.611 4.611 c -0.552 0 -1 0.448 -1 1 v 0.125 C 32.646 7.288 33.093 7.735 33.646 7.735 z M 39.319 4.391 c 0.561 0.935 1.347 1.721 2.282 2.282 c -0.935 0.561 -1.721 1.347 -2.282 2.282 c -0.562 -0.935 -1.347 -1.721 -2.282 -2.282 C 37.972 6.112 38.757 5.326 39.319 4.391 z" style="stroke: none; stroke-width: 1; stroke-dasharray: none; stroke-linecap: butt; stroke-linejoin: miter; stroke-miterlimit: 10; fill: rgb(0,0,0); fill-rule: nonzero; opacity: 1;" transform=" matrix(1 0 0 1 0 0) " stroke-linecap="round" />
</g>
</svg>