<svg viewBox="0 0 1024 1024" width="20" xmlns="http://www.w3.org/2000/svg"><path d="m266.815 537.708c0 22.62-18.34 40.96-40.96 40.96s-40.96-18.34-40.96-40.96 18.34-40.96 40.96-40.96 40.96 18.34 40.96 40.96zm182.77 0c0 22.62-18.34 40.96-40.96 40.96s-40.96-18.34-40.96-40.96 18.34-40.96 40.96-40.96 40.96 18.34 40.96 40.96zm182.775 0c0 22.62-18.34 40.96-40.96 40.96s-40.96-18.34-40.96-40.96 18.34-40.96 40.96-40.96 40.96 18.34 40.96 40.96zm182.77 0c0 22.62-18.34 40.96-40.96 40.96s-40.96-18.34-40.96-40.96 18.34-40.96 40.96-40.96 40.96 18.34 40.96 40.96zm-548.315 141.639c0 22.62-18.34 40.96-40.96 40.96s-40.96-18.34-40.96-40.96 18.34-40.96 40.96-40.96 40.96 18.34 40.96 40.96zm182.77 0c0 22.62-18.34 40.96-40.96 40.96s-40.96-18.34-40.96-40.96 18.34-40.96 40.96-40.96 40.96 18.34 40.96 40.96zm182.775 0c0 22.62-18.34 40.96-40.96 40.96s-40.96-18.34-40.96-40.96 18.34-40.96 40.96-40.96 40.96 18.34 40.96 40.96zm182.77 0c0 22.62-18.34 40.96-40.96 40.96s-40.96-18.34-40.96-40.96 18.34-40.96 40.96-40.96 40.96 18.34 40.96 40.96zm-548.315 141.641c0 22.62-18.34 40.96-40.96 40.96s-40.96-18.34-40.96-40.96 18.34-40.96 40.96-40.96 40.96 18.34 40.96 40.96zm182.77 0c0 22.62-18.34 40.96-40.96 40.96s-40.96-18.34-40.96-40.96 18.34-40.96 40.96-40.96 40.96 18.34 40.96 40.96zm182.775 0c0 22.62-18.34 40.96-40.96 40.96s-40.96-18.34-40.96-40.96 18.34-40.96 40.96-40.96 40.96 18.34 40.96 40.96zm182.77 0c0 22.62-18.34 40.96-40.96 40.96s-40.96-18.34-40.96-40.96 18.34-40.96 40.96-40.96 40.96 18.34 40.96 40.96zm-586.95-739.07v153.6c0 11.311 9.169 20.48 20.48 20.48s20.48-9.169 20.48-20.48v-153.6c0-11.311-9.169-20.48-20.48-20.48s-20.48 9.169-20.48 20.48zm528.09 0v153.6c0 11.311 9.169 20.48 20.48 20.48s20.48-9.169 20.48-20.48v-153.6c0-11.311-9.169-20.48-20.48-20.48s-20.48 9.169-20.48 20.48z"/><path d="m890.877 137.517c33.931 0 61.44 27.509 61.44 61.44v703.375c0 33.931-27.509 61.44-61.44 61.44h-757.76c-33.931 0-61.44-27.509-61.44-61.44v-703.375c0-33.931 27.509-61.44 61.44-61.44zm-757.76 40.96c-11.309 0-20.48 9.171-20.48 20.48v703.375c0 11.309 9.171 20.48 20.48 20.48h757.76c11.309 0 20.48-9.171 20.48-20.48v-703.375c0-11.309-9.171-20.48-20.48-20.48z"/><path d="m575.03 338.288c0-33.93-27.51-61.44-61.44-61.44s-61.44 27.51-61.44 61.44 27.51 61.44 61.44 61.44 61.44-27.51 61.44-61.44zm40.96 0c0 56.551-45.849 102.4-102.4 102.4s-102.4-45.849-102.4-102.4 45.849-102.4 102.4-102.4 102.4 45.849 102.4 102.4z"/></svg>