<svg enable-background="new 0 0 32 32" viewBox="0 0 32 32" width="22" xmlns="http://www.w3.org/2000/svg"><path d="m20.372 17.743c.205-.12.403-.248.597-.383h5.031c.199 0 .36-.161.36-.36v-6c0-5.712-4.647-10.36-10.36-10.36-5.712 0-10.36 4.648-10.36 10.36v6c0 .199.161.36.36.36h5.032c.193.135.392.263.596.383-7.293 2.003-10.988 6.459-10.988 13.257h.72c0-5.464 2.542-9.333 7.566-11.544l6.77 10.737c.066.104.181.168.305.168s.239-.063.305-.168l6.77-10.736c5.022 2.211 7.565 6.08 7.565 11.544h.721c-.003-6.799-3.698-11.255-10.99-13.258zm-14.012-1.103v-5.64c0-5.315 4.325-9.64 9.64-9.64s9.64 4.325 9.64 9.64v5.64h-3.78c1.745-1.611 2.788-3.902 2.788-6.353v-.399c-.001-.181-.135-.333-.313-.356-2.677-.353-5.127-1.532-7.086-3.411-.139-.134-.359-.134-.499 0-2.363 2.269-5.471 3.519-8.75 3.519l-.282-.003c-.071.007-.189.036-.258.104-.069.067-.107.16-.107.256v.29c0 2.451 1.042 4.742 2.787 6.353zm9.64 12.685-6.395-10.143c.959-.378 1.99-.707 3.114-.974.15-.036.261-.163.275-.317.014-.153-.071-.299-.212-.362-2.839-1.264-4.682-4.072-4.71-7.169 3.325-.018 6.479-1.251 8.927-3.486 1.946 1.776 4.325 2.92 6.916 3.324-.235 3.104-4.008 4.345-6.606 4.437-.16-.573-.687-.994-1.31-.994-.75 0-1.36.61-1.36 1.36s.61 1.36 1.36 1.36c.627 0 1.157-.427 1.313-1.006 2.008-.068 4.662-.787 6.165-2.44-.713 2.021-2.232 3.712-4.261 4.615-.141.063-.227.209-.212.362.015.154.125.281.275.317 1.124.266 2.156.596 3.115.974zm.64-14.325c0 .353-.287.64-.64.64s-.64-.287-.64-.64.287-.64.64-.64.64.287.64.64zm5.36 12.64h6v.721h-6z"/><path d="m0 0h32v32h-32z" fill="none"/></svg>