<svg enable-background="new 0 0 32 32" viewBox="0 0 32 32" width="25" xmlns="http://www.w3.org/2000/svg"><path d="m22 31.36c-.038 0-.076-.007-.114-.019l-5.886-1.961-5.886 1.962c-.11.035-.231.018-.324-.05-.094-.067-.15-.177-.15-.292v-2c0-.104.044-.202.123-.271l3.877-3.393v-20.167c0-1.419.594-4.529 2.36-4.529s2.36 3.11 2.36 4.529v5.166l2.279 1.759v-2.094h.721v2.65l2.279 1.759v-2.409h.721v2.965l4.859 3.75c.089.068.141.174.141.285v4.5c0 .128-.068.246-.179.311-.112.066-.247.065-.359.003l-10.458-5.916-.004 7.439 3.877 3.393c.078.068.123.167.123.271v2c0 .115-.056.225-.149.292-.063.044-.137.067-.211.067zm-6-2.72c.039 0 .077.007.114.019l5.526 1.843v-1.338l-3.877-3.393c-.078-.068-.123-.167-.123-.271l.005-8.22c0-.128.068-.246.179-.311.112-.064.247-.065.359-.002l10.457 5.916v-3.706l-10.859-8.38c-.089-.068-.141-.174-.141-.285v-5.343c0-1.33-.562-3.81-1.64-3.81-1.077 0-1.64 2.48-1.64 3.81v20.331c0 .104-.044.202-.123.271l-3.877 3.393v1.338l5.526-1.843c.037-.013.075-.019.114-.019zm-13-4.78c-.062 0-.125-.017-.18-.049-.111-.064-.18-.183-.18-.312v-4.499c0-.112.052-.218.141-.286l4.859-3.721v-2.993h.72v2.441l2.28-1.746v-2.695h.72v2.873c0 .112-.052.218-.141.286l-7.859 6.019v3.699l8.46-4.884.36.623-9 5.195c-.055.033-.118.049-.18.049z"/><path d="m0 0h32v32h-32z" fill="none"/></svg>