<svg height="32" viewBox="0 0 32 32" xmlns="http://www.w3.org/2000/svg"><path d="m16 28a5.3257 5.3257 0 0 1 -.6714-.044 21.7855 21.7855 0 0 1 -3.2954-10.956h17.9168c.0236-.3315.05-.6626.05-1a14 14 0 1 0 -14 14zm11.9492-13h-5.9861a24.3247 24.3247 0 0 0 -2.7531-10.5508 12.0123 12.0123 0 0 1 8.7392 10.5508zm-11.2778-10.9561a21.7855 21.7855 0 0 1 3.2954 10.9561h-7.9336a21.7855 21.7855 0 0 1 3.2954-10.9561 5.159 5.159 0 0 1 1.3428 0zm-3.8814.4053a24.3275 24.3275 0 0 0 -2.7531 10.5508h-5.9861a12.0126 12.0126 0 0 1 8.7392-10.5508zm-8.7392 12.5508h5.9861a24.3275 24.3275 0 0 0 2.7531 10.5508 12.0126 12.0126 0 0 1 -8.7392-10.5508z"/><path d="m25 25 5 2v-2l-5-2.5v-2.5a1 1 0 0 0 -2 0v2.5l-5 2.5v2l5-2v3.5l-2 1.5v1l3-1 3 1v-1l-2-1.5z" fill-rule="evenodd"/><path d="m0 0h32v32h-32z" fill="none"/></svg>