<svg height="32" viewBox="0 0 32 32" width="26" xmlns="http://www.w3.org/2000/svg"><path d="m13.76 15.64 2.24-.64-2.24-.64-1.26-3.36-1.26 3.36-2.24.64 2.24.64 1.26 3.36zm9.9542857-6.40190476-1.2142857-3.23809524-1.2142857 3.23809524-2.2857143.76190476 2.2857143.7619048 1.2142857 3.2380952 1.2142857-3.2380952 2.2857143-.7619048zm-2 11.99999996-1.2142857-3.2380952-1.2142857 3.2380952-2.2857143.7619048 2.2857143.7619048 1.2142857 3.2380952 1.2142857-3.2380952 2.2857143-.7619048zm-7.2548262-7.7516087-1.9594595-5.4864865-1.9594595 5.4864865-4.5405405 1.5135135 4.5405405 1.5135135 1.9594595 5.4864865 1.9594595-5.4864865 4.5405405-1.5135135z" fill-rule="evenodd"/></svg>